<svg xmlns="http://www.w3.org/2000/svg" version="1.1" xmlns:xlink="http://www.w3.org/1999/xlink" xmlns:svgjs="http://svgjs.dev/svgjs" width="1000" height="1000" viewBox="0 0 1000 1000"><rect width="1000" height="1000" fill="#000000"></rect><g transform="matrix(0.7,0,0,0.7,149.57575757575756,447.37889842102743)"><svg viewBox="0 0 396 60" data-background-color="#ffffff" preserveAspectRatio="xMidYMid meet" height="151" width="1000" xmlns="http://www.w3.org/2000/svg" xmlns:xlink="http://www.w3.org/1999/xlink"><defs></defs><g id="tight-bounds" transform="matrix(1,0,0,1,0.2400000000000091,-0.12993287853973357)"><svg viewBox="0 0 395.52 60.25986575707949" height="60.25986575707949" width="395.52"><g><svg viewBox="0 0 525.4770212270112 80.05960446392017" height="60.25986575707949" width="395.52"><g><rect width="6.60461505772513" height="80.05960446392017" x="106.06283795534581" y="0" fill="#ffffff" opacity="1" stroke-width="0" stroke="transparent" fill-opacity="1" class="rect-o-0" data-fill-palette-color="primary" rx="1%" id="o-0" data-palette-color="#7a26c1"></rect></g><g transform="matrix(1,0,0,1,129.95702122701107,0.19915324493511832)"><svg viewBox="0 0 395.52000000000004 79.66129797404993" height="79.66129797404993" width="395.52000000000004"><g><svg viewBox="0 0 395.52000000000004 79.66129797404993" height="79.66129797404993" width="395.52000000000004"><g><svg viewBox="0 0 395.52000000000004 79.66129797404993" height="79.66129797404993" width="395.52000000000004"><g transform="matrix(1,0,0,1,0,0)"><svg width="395.52000000000004" viewBox="2.8296473026275635 -33.75032043457031 184.71035766601562 34.21031951904297" height="79.66129797404993" data-palette-color="#7a26c1"><svg></svg><g class="undefined-text-0" data-fill-palette-color="primary" id="text-0"><path d="M18.81-30.28v0c-3.66 0-6.547 1.22-8.66 3.66-2.113 2.447-3.17 5.813-3.17 10.1 0 4.287 1.02 7.617 3.06 9.99 2.033 2.367 4.94 3.55 8.72 3.55v0c2.36 0 5.013-0.413 7.96-1.24v0 3.39c-2.307 0.86-5.157 1.29-8.55 1.29v0c-4.9 0-8.68-1.483-11.34-4.45v0c-2.667-3-4-7.23-4-12.69v0c-0.013-2.533 0.353-4.863 1.1-6.99 0.753-2.133 1.82-3.943 3.2-5.43 1.38-1.48 3.073-2.63 5.08-3.45 2.007-0.813 4.223-1.213 6.65-1.2v0c3.52 0 6.57 0.64 9.15 1.92v0l-1.64 3.32c-2.48-1.18-5-1.77-7.56-1.77zM55.36-33.27h3.87v33.27h-3.87v-15.65h-17.52v15.65h-3.87v-33.27h3.87v14.16h17.52zM72.22-33.27v33.27h-3.87v-33.27zM90.24-29.88h-5.03v12.72h5.31c2.713 0 4.71-0.537 5.99-1.61 1.28-1.067 1.92-2.697 1.92-4.89 0-2.193-0.647-3.777-1.94-4.75-1.3-0.98-3.383-1.47-6.25-1.47zM92.14-13.83h-6.93v13.83h-3.87v-33.27h9.13c4.06 0 7.067 0.78 9.02 2.34 1.96 1.56 2.94 3.917 2.94 7.07v0c0 4.413-2.227 7.387-6.68 8.92v0l9.03 14.94h-4.58zM110.14-33.27h8.62c8.307 0 12.46 3.237 12.46 9.71v0c0 3.353-1.15 5.94-3.45 7.76-2.3 1.82-5.583 2.73-9.85 2.73v0h-3.92v13.07h-3.86zM118.33-29.9h-4.33v13.49h3.49c3.407 0 5.883-0.547 7.43-1.64v0c1.533-1.113 2.3-2.837 2.3-5.17 0-2.333-0.723-4.03-2.17-5.09-1.447-1.06-3.687-1.59-6.72-1.59zM142.06-3.46h14.66v3.46h-18.52v-33.27h18.52v3.44h-14.66v10.72h13.78v3.41h-13.78zM173-29.88h-5.03v12.72h5.31c2.713 0 4.71-0.537 5.99-1.61 1.28-1.067 1.92-2.697 1.92-4.89 0-2.193-0.647-3.777-1.94-4.75-1.3-0.98-3.383-1.47-6.25-1.47zM174.9-13.83h-6.93v13.83h-3.86v-33.27h9.12c4.06 0 7.067 0.78 9.02 2.34 1.96 1.56 2.94 3.917 2.94 7.07v0c0 4.413-2.227 7.387-6.68 8.92v0l9.03 14.94h-4.58z" data-fill-palette-color="primary" fill="#ffffff" opacity="1"></path></g></svg></g></svg></g></svg></g></svg></g><g transform="matrix(1,0,0,1,0,0.19915324493511832)"><svg viewBox="0 0 88.77326974140568 79.66129797404993" height="79.66129797404993" width="88.77326974140568"><g><svg xmlns="http://www.w3.org/2000/svg" xmlns:xl="http://www.w3.org/1999/xlink" xmlns:dc="http://purl.org/dc/elements/1.1/" version="1.1" viewBox="12 14.530306816101074 78.5302963256836 70.46969604492188" x="0" y="0" height="79.66129797404993" width="88.77326974140568" class="icon-icon-0" data-fill-palette-color="accent" id="icon-0"><g stroke="none" stroke-opacity="1" stroke-dasharray="none" fill="none" fill-opacity="1"><g fill="#6936f5" data-fill-palette-color="accent"><path d="M58.638 19.745L58.616 19.737 58.436 19.989C58.102 20.403 57.796 20.832 57.518 21.274L46.676 36.428 30.166 24.616 16 14.53 16 44.338 16.002 44.34C15.937 48.367 17.441 52.414 20.513 55.487 23.129 58.102 26.451 59.581 29.865 59.923L27.51 63.216 12 85 57.839 85 57.842 84.997C64.034 85.097 70.258 82.785 74.984 78.059 79.103 73.94 81.389 68.682 81.841 63.298L81.924 63.246 81.924 61.327C81.924 61.311 81.924 61.296 81.924 61.28L81.924 36.898 90.53 32.288 81.91 27.67C81.763 24.497 80.479 21.367 78.056 18.944 72.898 13.786 64.535 13.786 59.377 18.944 59.118 19.204 58.871 19.471 58.638 19.745ZM71.455 24.47C72.505 25.52 72.505 27.223 71.455 28.273 70.404 29.323 68.702 29.323 67.651 28.273 66.601 27.223 66.601 25.52 67.651 24.47 68.702 23.419 70.404 23.419 71.455 24.47" fill="#ffffff" data-fill-palette-color="accent"></path></g></g></svg></g></svg></g></svg></g></svg><rect width="395.52" height="60.25986575707949" fill="none" stroke="none" visibility="hidden"></rect></g></svg></g></svg>